<svg width="724.097" height="51.169" viewBox="0 0 724.097 51.169" xmlns="http://www.w3.org/2000/svg"><g id="svgGroup" stroke-linecap="round" fill-rule="evenodd" font-size="9pt" stroke="#261f1d" stroke-width="0.25mm" fill="#8e9abf" style="stroke:#261f1d;stroke-width:0.25mm;fill:#8e9abf"><path d="M 281.538 0.718 L 288.477 31.924 L 294.185 0.718 L 306.079 0.718 L 295.518 50.484 L 283.076 50.484 L 276.411 22.115 L 269.883 50.484 L 257.476 50.484 L 246.88 0.718 L 258.809 0.718 L 264.517 31.924 L 271.353 0.718 L 281.538 0.718 Z M 444.644 0.718 L 451.582 31.924 L 457.29 0.718 L 469.185 0.718 L 458.623 50.484 L 446.182 50.484 L 439.517 22.115 L 432.988 50.484 L 420.581 50.484 L 409.985 0.718 L 421.914 0.718 L 427.622 31.924 L 434.458 0.718 L 444.644 0.718 Z M 675.767 0.718 L 675.767 50.484 L 663.838 50.484 L 646.201 19.517 L 646.201 50.484 L 634.204 50.484 L 634.204 0.718 L 646.201 0.718 L 663.804 31.685 L 663.804 0.718 L 675.767 0.718 Z M 724.097 23.892 L 724.097 44.332 Q 721.795 46.89 717.72 48.62 A 29.492 29.492 0 0 1 715.996 49.288 Q 710.664 51.168 704.307 51.168 A 25.927 25.927 0 0 1 697.528 50.326 A 19.081 19.081 0 0 1 688.687 45.186 Q 682.842 39.205 682.432 28.541 L 682.397 24.234 A 35.146 35.146 0 0 1 682.949 17.855 A 26.065 26.065 0 0 1 684.995 11.4 A 20.203 20.203 0 0 1 689.086 5.561 A 18.614 18.614 0 0 1 692.429 2.957 A 20.175 20.175 0 0 1 700.913 0.142 A 25.367 25.367 0 0 1 703.623 0.001 A 32.668 32.668 0 0 1 709.277 0.459 Q 712.359 1.001 714.814 2.186 A 15.932 15.932 0 0 1 718.064 4.256 Q 722.957 8.304 723.969 16.139 A 29.739 29.739 0 0 1 724.063 16.954 L 712.51 16.954 Q 712.128 14.369 711.195 12.703 A 6.272 6.272 0 0 0 709.844 11.006 A 6.736 6.736 0 0 0 707.367 9.674 Q 705.914 9.229 704.033 9.229 Q 699.521 9.229 697.061 13.057 Q 695.307 15.785 694.786 20.178 A 33.84 33.84 0 0 0 694.565 23.995 L 694.565 27.003 Q 694.565 34.076 696.86 37.807 A 10.058 10.058 0 0 0 697.112 38.196 A 8.256 8.256 0 0 0 702.575 41.705 A 13.171 13.171 0 0 0 705.127 41.939 Q 708.086 41.939 710.09 41.106 A 6.867 6.867 0 0 0 712.1 39.854 L 712.1 32.13 L 703.76 32.13 L 703.76 23.892 L 724.097 23.892 Z M 605.493 0.718 L 605.493 50.484 L 593.564 50.484 L 593.564 29.703 L 575.894 29.703 L 575.894 50.484 L 563.896 50.484 L 563.896 0.718 L 575.894 0.718 L 575.894 20.474 L 593.564 20.474 L 593.564 0.718 L 605.493 0.718 Z M 557.744 15.484 L 545.781 15.484 A 7.979 7.979 0 0 0 545.561 13.554 A 5.408 5.408 0 0 0 543.918 10.767 Q 542.125 9.155 539.113 9.095 A 11.79 11.79 0 0 0 538.877 9.092 A 11.776 11.776 0 0 0 536.849 9.256 Q 535.741 9.45 534.852 9.874 A 5.949 5.949 0 0 0 533.801 10.511 Q 531.938 11.929 531.938 14.117 A 3.624 3.624 0 0 0 532.661 16.263 Q 533.032 16.782 533.594 17.266 A 7.99 7.99 0 0 0 533.989 17.586 A 10.962 10.962 0 0 0 535.383 18.466 Q 536.952 19.316 539.419 20.196 A 58.936 58.936 0 0 0 541.201 20.799 Q 546.362 22.457 549.678 24.371 Q 557.744 29.019 557.744 37.188 A 13.874 13.874 0 0 1 556.963 41.945 A 11.898 11.898 0 0 1 552.822 47.442 A 16.924 16.924 0 0 1 547.301 50.147 Q 543.812 51.168 539.321 51.168 A 29.187 29.187 0 0 1 532.878 50.481 A 24.402 24.402 0 0 1 528.367 48.997 A 19.626 19.626 0 0 1 524.54 46.791 A 14.797 14.797 0 0 1 520.984 43.05 A 15.188 15.188 0 0 1 518.545 35.573 A 18.738 18.738 0 0 1 518.506 34.351 L 530.537 34.351 A 12.255 12.255 0 0 0 530.719 36.54 Q 530.935 37.727 531.407 38.654 A 5.56 5.56 0 0 0 532.605 40.247 A 6.11 6.11 0 0 0 534.608 41.437 Q 536.367 42.1 538.97 42.141 A 22.068 22.068 0 0 0 539.321 42.144 Q 541.497 42.144 543.005 41.458 A 5.562 5.562 0 0 0 544.021 40.862 A 4.12 4.12 0 0 0 545.717 37.855 A 5.741 5.741 0 0 0 545.747 37.256 A 5.948 5.948 0 0 0 545.485 35.446 A 4.667 4.667 0 0 0 543.884 33.155 A 9.968 9.968 0 0 0 542.613 32.32 Q 540.704 31.243 537.339 30.113 Q 532.656 28.541 529.683 27.071 A 24.048 24.048 0 0 1 525.226 24.296 Q 520.01 20.114 520.01 14.014 Q 520.01 9.879 522.419 6.717 A 14.091 14.091 0 0 1 526.213 3.312 A 18.983 18.983 0 0 1 529.238 1.795 A 24.534 24.534 0 0 1 535.416 0.252 A 31.102 31.102 0 0 1 539.15 0.035 A 25.834 25.834 0 0 1 544.538 0.575 A 20.893 20.893 0 0 1 548.772 1.949 Q 553.027 3.863 555.386 7.401 A 14.112 14.112 0 0 1 557.735 14.92 A 17.171 17.171 0 0 1 557.744 15.484 Z M 341.626 20.474 L 341.626 29.395 L 322.759 29.395 L 322.759 41.255 L 345.044 41.255 L 345.044 50.484 L 310.762 50.484 L 310.762 0.718 L 345.112 0.718 L 345.112 9.981 L 322.759 9.981 L 322.759 20.474 L 341.626 20.474 Z M 27.275 50.484 L 18.491 32.916 L 11.997 32.916 L 11.997 50.484 L 0 50.484 L 0 0.718 L 19.585 0.718 Q 25.928 0.718 30.288 2.737 A 15.722 15.722 0 0 1 33.428 4.649 A 12.797 12.797 0 0 1 38.296 13.594 A 18.634 18.634 0 0 1 38.418 15.757 A 21.276 21.276 0 0 1 38.122 19.404 Q 37.753 21.527 36.921 23.259 A 12.178 12.178 0 0 1 36.316 24.371 A 13.115 13.115 0 0 1 32.986 27.969 A 18.583 18.583 0 0 1 29.736 29.908 L 40.127 49.971 L 40.127 50.484 L 27.275 50.484 Z M 377.207 50.484 L 368.423 32.916 L 361.929 32.916 L 361.929 50.484 L 349.932 50.484 L 349.932 0.718 L 369.517 0.718 Q 375.86 0.718 380.22 2.737 A 15.722 15.722 0 0 1 383.359 4.649 A 12.797 12.797 0 0 1 388.228 13.594 A 18.634 18.634 0 0 1 388.35 15.757 A 21.276 21.276 0 0 1 388.054 19.404 Q 387.685 21.527 386.853 23.259 A 12.178 12.178 0 0 1 386.248 24.371 A 13.115 13.115 0 0 1 382.917 27.969 A 18.583 18.583 0 0 1 379.668 29.908 L 390.059 49.971 L 390.059 50.484 L 377.207 50.484 Z M 76.836 50.484 L 73.931 41.187 L 57.49 41.187 L 54.619 50.484 L 41.802 50.484 L 60.054 0.718 L 71.333 0.718 L 89.722 50.484 L 76.836 50.484 Z M 503.569 50.484 L 500.664 41.187 L 484.224 41.187 L 481.353 50.484 L 468.535 50.484 L 486.787 0.718 L 498.066 0.718 L 516.455 50.484 L 503.569 50.484 Z M 175.684 33.599 L 168.027 33.599 L 168.027 50.484 L 156.03 50.484 L 156.03 0.718 L 175.889 0.718 A 26.367 26.367 0 0 1 181.268 1.244 A 20.625 20.625 0 0 1 185.989 2.82 Q 190.381 4.922 192.791 8.802 A 16.117 16.117 0 0 1 195.179 16.689 A 19.531 19.531 0 0 1 195.2 17.603 A 16.399 16.399 0 0 1 194.307 23.131 A 13.972 13.972 0 0 1 189.988 29.241 A 17.591 17.591 0 0 1 183.412 32.626 Q 180.839 33.356 177.778 33.538 A 35.185 35.185 0 0 1 175.684 33.599 Z M 109.717 50.484 L 93.345 50.484 L 93.345 0.718 L 109.375 0.718 A 24.971 24.971 0 0 1 116.92 1.829 A 22.24 22.24 0 0 1 121.235 3.709 Q 126.499 6.7 129.456 12.151 A 24.9 24.9 0 0 1 132.364 22.288 A 29.947 29.947 0 0 1 132.446 24.371 L 132.446 26.661 A 27.772 27.772 0 0 1 131.532 33.902 A 23.711 23.711 0 0 1 129.558 38.914 Q 126.67 44.332 121.423 47.391 A 22.885 22.885 0 0 1 110.52 50.468 A 27.069 27.069 0 0 1 109.717 50.484 Z M 243.735 24.337 L 243.735 26.627 A 33.413 33.413 0 0 1 243.06 33.488 A 26.209 26.209 0 0 1 241.035 39.512 A 20.835 20.835 0 0 1 236.708 45.573 A 19.291 19.291 0 0 1 233.362 48.143 A 20.898 20.898 0 0 1 223.792 51.108 A 25.564 25.564 0 0 1 222.031 51.168 Q 215.674 51.168 210.752 48.245 A 19.8 19.8 0 0 1 203.341 40.392 A 23.82 23.82 0 0 1 203.079 39.888 A 26.505 26.505 0 0 1 200.562 31.86 A 33.798 33.798 0 0 1 200.19 27.413 L 200.19 24.61 Q 200.19 17.296 202.874 11.707 Q 205.557 6.119 210.564 3.077 Q 215.571 0.035 221.963 0.035 A 22.702 22.702 0 0 1 228.904 1.067 A 20.13 20.13 0 0 1 233.242 3.043 A 20.089 20.089 0 0 1 240.586 10.899 A 24.252 24.252 0 0 1 240.95 11.605 A 26.601 26.601 0 0 1 243.42 19.801 A 34.03 34.03 0 0 1 243.735 24.337 Z M 625.864 0.718 L 625.864 50.484 L 613.901 50.484 L 613.901 0.718 L 625.864 0.718 Z M 231.533 26.832 L 231.533 24.542 A 35.676 35.676 0 0 0 231.315 20.453 Q 230.811 16.098 229.144 13.419 A 10.52 10.52 0 0 0 229.055 13.279 A 8.565 8.565 0 0 0 226.637 10.754 Q 224.913 9.599 222.627 9.455 A 10.537 10.537 0 0 0 221.963 9.434 Q 213.058 9.434 212.442 22.616 A 39.918 39.918 0 0 0 212.427 22.969 L 212.393 26.627 A 35.453 35.453 0 0 0 212.624 30.819 Q 213.141 35.154 214.819 37.872 Q 217.246 41.802 222.031 41.802 Q 226.577 41.802 229.038 37.94 A 13.531 13.531 0 0 0 230.543 34.567 Q 231.504 31.386 231.533 26.902 A 43.035 43.035 0 0 0 231.533 26.832 Z M 109.375 9.981 L 105.342 9.981 L 105.342 41.255 L 109.512 41.255 Q 114.673 41.255 117.441 37.581 A 11.839 11.839 0 0 0 119.182 34.166 Q 120.21 31.076 120.21 26.661 L 120.21 24.507 A 30.075 30.075 0 0 0 119.966 20.539 Q 119.388 16.21 117.441 13.638 Q 114.673 9.981 109.375 9.981 Z M 168.027 9.981 L 168.027 24.337 L 175.889 24.337 A 11.189 11.189 0 0 0 177.906 24.166 Q 179.054 23.956 179.954 23.484 A 5.494 5.494 0 0 0 181.204 22.593 A 5.683 5.683 0 0 0 182.795 19.773 Q 183.017 18.875 183.031 17.814 A 10.882 10.882 0 0 0 183.032 17.672 A 10.517 10.517 0 0 0 182.789 15.347 Q 182.357 13.436 181.152 12.1 A 6.281 6.281 0 0 0 177.381 10.094 A 8.966 8.966 0 0 0 176.025 9.981 L 168.027 9.981 Z M 11.997 9.981 L 11.997 23.653 L 19.585 23.653 Q 21.975 23.653 23.538 22.776 A 5.119 5.119 0 0 0 24.729 21.859 Q 26.356 20.167 26.449 17.215 A 11.517 11.517 0 0 0 26.455 16.851 Q 26.455 13.638 24.712 11.81 Q 23.16 10.181 20.306 10.003 A 11.569 11.569 0 0 0 19.585 9.981 L 11.997 9.981 Z M 361.929 9.981 L 361.929 23.653 L 369.517 23.653 Q 371.907 23.653 373.469 22.776 A 5.119 5.119 0 0 0 374.661 21.859 Q 376.288 20.167 376.381 17.215 A 11.517 11.517 0 0 0 376.387 16.851 Q 376.387 13.638 374.644 11.81 Q 373.091 10.181 370.238 10.003 A 11.569 11.569 0 0 0 369.517 9.981 L 361.929 9.981 Z M 65.693 14.664 L 60.361 31.924 L 71.06 31.924 L 65.693 14.664 Z M 492.427 14.664 L 487.095 31.924 L 497.793 31.924 L 492.427 14.664 Z" vector-effect="non-scaling-stroke"/></g></svg>